<mxfile host="app.diagrams.net" modified="2024-07-02T15:23:18.200Z" agent="Mozilla/5.0 (Windows NT 10.0; Win64; x64) AppleWebKit/537.36 (KHTML, like Gecko) Chrome/126.0.0.0 Safari/537.36" etag="z1_EHriFrgiDOLiUvxtx" version="24.6.4" type="device">
  <diagram id="C5RBs43oDa-KdzZeNtuy" name="Page-1">
    <mxGraphModel dx="1432" dy="1851" grid="1" gridSize="10" guides="1" tooltips="1" connect="1" arrows="1" fold="1" page="1" pageScale="1" pageWidth="827" pageHeight="1169" math="0" shadow="0">
      <root>
        <mxCell id="WIyWlLk6GJQsqaUBKTNV-0" />
        <mxCell id="WIyWlLk6GJQsqaUBKTNV-1" parent="WIyWlLk6GJQsqaUBKTNV-0" />
        <mxCell id="L2gmkhJbMCFJ-E8kOfrQ-0" value="&amp;lt;&amp;lt; uhd::usrp::multi_usrp &amp;gt;&amp;gt;" style="swimlane;fontStyle=3;align=center;verticalAlign=top;childLayout=stackLayout;horizontal=1;startSize=26;horizontalStack=0;resizeParent=1;resizeParentMax=0;resizeLast=0;collapsible=1;marginBottom=0;whiteSpace=wrap;html=1;" vertex="1" parent="WIyWlLk6GJQsqaUBKTNV-1">
          <mxGeometry x="80" y="10" width="350" height="164" as="geometry">
            <mxRectangle x="290" y="220" width="70" height="30" as="alternateBounds" />
          </mxGeometry>
        </mxCell>
        <mxCell id="L2gmkhJbMCFJ-E8kOfrQ-2" value="" style="line;strokeWidth=1;fillColor=none;align=left;verticalAlign=middle;spacingTop=-1;spacingLeft=3;spacingRight=3;rotatable=0;labelPosition=right;points=[];portConstraint=eastwest;strokeColor=inherit;" vertex="1" parent="L2gmkhJbMCFJ-E8kOfrQ-0">
          <mxGeometry y="26" width="350" height="8" as="geometry" />
        </mxCell>
        <mxCell id="L2gmkhJbMCFJ-E8kOfrQ-3" value="+ getDevice(void): uhd::device" style="text;strokeColor=none;fillColor=none;align=left;verticalAlign=top;spacingLeft=4;spacingRight=4;overflow=hidden;rotatable=0;points=[[0,0.5],[1,0.5]];portConstraint=eastwest;whiteSpace=wrap;html=1;fontStyle=2" vertex="1" parent="L2gmkhJbMCFJ-E8kOfrQ-0">
          <mxGeometry y="34" width="350" height="26" as="geometry" />
        </mxCell>
        <mxCell id="L2gmkhJbMCFJ-E8kOfrQ-4" value="+ get_rx_stream(uhd::stream_args_t&amp;amp; arg):&amp;nbsp;uhd::rx_streamer" style="text;strokeColor=none;fillColor=none;align=left;verticalAlign=top;spacingLeft=4;spacingRight=4;overflow=hidden;rotatable=0;points=[[0,0.5],[1,0.5]];portConstraint=eastwest;whiteSpace=wrap;html=1;fontStyle=2" vertex="1" parent="L2gmkhJbMCFJ-E8kOfrQ-0">
          <mxGeometry y="60" width="350" height="26" as="geometry" />
        </mxCell>
        <mxCell id="L2gmkhJbMCFJ-E8kOfrQ-5" value="+ get_tx_stream(uhd::stream_args_t&amp;amp; arg):&amp;nbsp;uhd::tx_streamer" style="text;strokeColor=none;fillColor=none;align=left;verticalAlign=top;spacingLeft=4;spacingRight=4;overflow=hidden;rotatable=0;points=[[0,0.5],[1,0.5]];portConstraint=eastwest;whiteSpace=wrap;html=1;fontStyle=2" vertex="1" parent="L2gmkhJbMCFJ-E8kOfrQ-0">
          <mxGeometry y="86" width="350" height="26" as="geometry" />
        </mxCell>
        <mxCell id="L2gmkhJbMCFJ-E8kOfrQ-6" value="+ set_rx_freq():&amp;nbsp;uhd::rx_streamer" style="text;strokeColor=none;fillColor=none;align=left;verticalAlign=top;spacingLeft=4;spacingRight=4;overflow=hidden;rotatable=0;points=[[0,0.5],[1,0.5]];portConstraint=eastwest;whiteSpace=wrap;html=1;fontStyle=2" vertex="1" parent="L2gmkhJbMCFJ-E8kOfrQ-0">
          <mxGeometry y="112" width="350" height="26" as="geometry" />
        </mxCell>
        <mxCell id="L2gmkhJbMCFJ-E8kOfrQ-7" value="&lt;i style=&quot;font-size: 14px;&quot;&gt;&amp;lt;not implemented&amp;gt;&lt;/i&gt;" style="text;strokeColor=none;fillColor=none;align=center;verticalAlign=middle;spacingLeft=4;spacingRight=4;overflow=hidden;rotatable=0;points=[[0,0.5],[1,0.5]];portConstraint=eastwest;whiteSpace=wrap;html=1;fontFamily=Helvetica;fontSize=14;fontColor=default;fontStyle=0;" vertex="1" parent="L2gmkhJbMCFJ-E8kOfrQ-0">
          <mxGeometry y="138" width="350" height="26" as="geometry" />
        </mxCell>
        <mxCell id="L2gmkhJbMCFJ-E8kOfrQ-8" value="ihd::ipsolon_isrp" style="swimlane;fontStyle=1;align=center;verticalAlign=top;childLayout=stackLayout;horizontal=1;startSize=26;horizontalStack=0;resizeParent=1;resizeParentMax=0;resizeLast=0;collapsible=1;marginBottom=0;whiteSpace=wrap;html=1;" vertex="1" parent="WIyWlLk6GJQsqaUBKTNV-1">
          <mxGeometry x="80" y="228" width="350" height="86" as="geometry">
            <mxRectangle x="290" y="220" width="70" height="30" as="alternateBounds" />
          </mxGeometry>
        </mxCell>
        <mxCell id="L2gmkhJbMCFJ-E8kOfrQ-9" value="" style="line;strokeWidth=1;fillColor=none;align=left;verticalAlign=middle;spacingTop=-1;spacingLeft=3;spacingRight=3;rotatable=0;labelPosition=right;points=[];portConstraint=eastwest;strokeColor=inherit;" vertex="1" parent="L2gmkhJbMCFJ-E8kOfrQ-8">
          <mxGeometry y="26" width="350" height="8" as="geometry" />
        </mxCell>
        <mxCell id="L2gmkhJbMCFJ-E8kOfrQ-20" value="+ make(const uhd::device_addr_t&amp;amp; dev_addr): *ipsolon_isrp" style="text;strokeColor=none;fillColor=none;align=left;verticalAlign=top;spacingLeft=4;spacingRight=4;overflow=hidden;rotatable=0;points=[[0,0.5],[1,0.5]];portConstraint=eastwest;whiteSpace=wrap;html=1;fontStyle=4" vertex="1" parent="L2gmkhJbMCFJ-E8kOfrQ-8">
          <mxGeometry y="34" width="350" height="26" as="geometry" />
        </mxCell>
        <mxCell id="L2gmkhJbMCFJ-E8kOfrQ-14" value="&lt;span style=&quot;font-size: 14px; font-weight: 400;&quot;&gt;&amp;lt;not implemented&amp;gt;&lt;/span&gt;" style="text;strokeColor=none;fillColor=none;align=center;verticalAlign=middle;spacingLeft=4;spacingRight=4;overflow=hidden;rotatable=0;points=[[0,0.5],[1,0.5]];portConstraint=eastwest;whiteSpace=wrap;html=1;fontStyle=1;fontSize=18;" vertex="1" parent="L2gmkhJbMCFJ-E8kOfrQ-8">
          <mxGeometry y="60" width="350" height="26" as="geometry" />
        </mxCell>
        <mxCell id="L2gmkhJbMCFJ-E8kOfrQ-17" value="" style="endArrow=block;endSize=16;endFill=0;html=1;rounded=0;entryX=0.5;entryY=1.077;entryDx=0;entryDy=0;entryPerimeter=0;" edge="1" parent="WIyWlLk6GJQsqaUBKTNV-1" source="L2gmkhJbMCFJ-E8kOfrQ-8" target="L2gmkhJbMCFJ-E8kOfrQ-7">
          <mxGeometry width="160" relative="1" as="geometry">
            <mxPoint x="120" y="450" as="sourcePoint" />
            <mxPoint x="280" y="450" as="targetPoint" />
          </mxGeometry>
        </mxCell>
        <mxCell id="L2gmkhJbMCFJ-E8kOfrQ-18" value="Unused functions derived from mutli_usrp throws unimplemented exceptions" style="shape=note2;boundedLbl=1;whiteSpace=wrap;html=1;size=25;verticalAlign=middle;align=center;" vertex="1" parent="WIyWlLk6GJQsqaUBKTNV-1">
          <mxGeometry x="560" y="256" width="190" height="90" as="geometry" />
        </mxCell>
        <mxCell id="L2gmkhJbMCFJ-E8kOfrQ-19" style="edgeStyle=orthogonalEdgeStyle;rounded=0;orthogonalLoop=1;jettySize=auto;html=1;exitX=1;exitY=0.5;exitDx=0;exitDy=0;endArrow=none;endFill=0;dashed=1;" edge="1" parent="WIyWlLk6GJQsqaUBKTNV-1" source="L2gmkhJbMCFJ-E8kOfrQ-14" target="L2gmkhJbMCFJ-E8kOfrQ-18">
          <mxGeometry relative="1" as="geometry" />
        </mxCell>
        <mxCell id="L2gmkhJbMCFJ-E8kOfrQ-21" value="Factory to create Ipsolon implementation&amp;nbsp;" style="shape=note2;boundedLbl=1;whiteSpace=wrap;html=1;size=25;verticalAlign=middle;align=center;" vertex="1" parent="WIyWlLk6GJQsqaUBKTNV-1">
          <mxGeometry x="560" y="186" width="190" height="60" as="geometry" />
        </mxCell>
        <mxCell id="L2gmkhJbMCFJ-E8kOfrQ-22" style="edgeStyle=orthogonalEdgeStyle;rounded=0;orthogonalLoop=1;jettySize=auto;html=1;dashed=1;strokeColor=default;align=center;verticalAlign=middle;fontFamily=Helvetica;fontSize=11;fontColor=default;labelBackgroundColor=default;endArrow=none;endFill=0;entryX=-0.025;entryY=0.517;entryDx=0;entryDy=0;entryPerimeter=0;" edge="1" parent="WIyWlLk6GJQsqaUBKTNV-1" source="L2gmkhJbMCFJ-E8kOfrQ-20" target="L2gmkhJbMCFJ-E8kOfrQ-21">
          <mxGeometry relative="1" as="geometry">
            <Array as="points">
              <mxPoint x="500" y="275" />
              <mxPoint x="500" y="222" />
            </Array>
          </mxGeometry>
        </mxCell>
        <mxCell id="L2gmkhJbMCFJ-E8kOfrQ-23" value="ihd::chameleon_isrp_impl" style="swimlane;fontStyle=1;align=center;verticalAlign=top;childLayout=stackLayout;horizontal=1;startSize=26;horizontalStack=0;resizeParent=1;resizeParentMax=0;resizeLast=0;collapsible=1;marginBottom=0;whiteSpace=wrap;html=1;" vertex="1" parent="WIyWlLk6GJQsqaUBKTNV-1">
          <mxGeometry x="80" y="358" width="350" height="138" as="geometry">
            <mxRectangle x="290" y="220" width="70" height="30" as="alternateBounds" />
          </mxGeometry>
        </mxCell>
        <mxCell id="L2gmkhJbMCFJ-E8kOfrQ-24" value="" style="line;strokeWidth=1;fillColor=none;align=left;verticalAlign=middle;spacingTop=-1;spacingLeft=3;spacingRight=3;rotatable=0;labelPosition=right;points=[];portConstraint=eastwest;strokeColor=inherit;" vertex="1" parent="L2gmkhJbMCFJ-E8kOfrQ-23">
          <mxGeometry y="26" width="350" height="8" as="geometry" />
        </mxCell>
        <mxCell id="L2gmkhJbMCFJ-E8kOfrQ-25" value="+ getDevice(void): uhd::device" style="text;strokeColor=none;fillColor=none;align=left;verticalAlign=top;spacingLeft=4;spacingRight=4;overflow=hidden;rotatable=0;points=[[0,0.5],[1,0.5]];portConstraint=eastwest;whiteSpace=wrap;html=1;" vertex="1" parent="L2gmkhJbMCFJ-E8kOfrQ-23">
          <mxGeometry y="34" width="350" height="26" as="geometry" />
        </mxCell>
        <mxCell id="L2gmkhJbMCFJ-E8kOfrQ-26" value="+ get_rx_stream(uhd::stream_args_t&amp;amp; arg):&amp;nbsp;uhd::rx_streamer" style="text;strokeColor=none;fillColor=none;align=left;verticalAlign=top;spacingLeft=4;spacingRight=4;overflow=hidden;rotatable=0;points=[[0,0.5],[1,0.5]];portConstraint=eastwest;whiteSpace=wrap;html=1;" vertex="1" parent="L2gmkhJbMCFJ-E8kOfrQ-23">
          <mxGeometry y="60" width="350" height="26" as="geometry" />
        </mxCell>
        <mxCell id="L2gmkhJbMCFJ-E8kOfrQ-27" value="+ get_tx_stream(uhd::stream_args_t&amp;amp; arg):&amp;nbsp;uhd::tx_streamer" style="text;strokeColor=none;fillColor=none;align=left;verticalAlign=top;spacingLeft=4;spacingRight=4;overflow=hidden;rotatable=0;points=[[0,0.5],[1,0.5]];portConstraint=eastwest;whiteSpace=wrap;html=1;" vertex="1" parent="L2gmkhJbMCFJ-E8kOfrQ-23">
          <mxGeometry y="86" width="350" height="26" as="geometry" />
        </mxCell>
        <mxCell id="L2gmkhJbMCFJ-E8kOfrQ-28" value="+ set_rx_freq():&amp;nbsp;uhd::rx_streamer" style="text;strokeColor=none;fillColor=none;align=left;verticalAlign=top;spacingLeft=4;spacingRight=4;overflow=hidden;rotatable=0;points=[[0,0.5],[1,0.5]];portConstraint=eastwest;whiteSpace=wrap;html=1;" vertex="1" parent="L2gmkhJbMCFJ-E8kOfrQ-23">
          <mxGeometry y="112" width="350" height="26" as="geometry" />
        </mxCell>
        <mxCell id="L2gmkhJbMCFJ-E8kOfrQ-31" value="" style="endArrow=block;endSize=16;endFill=0;html=1;rounded=0;exitX=0.5;exitY=0;exitDx=0;exitDy=0;" edge="1" parent="WIyWlLk6GJQsqaUBKTNV-1" source="L2gmkhJbMCFJ-E8kOfrQ-23" target="L2gmkhJbMCFJ-E8kOfrQ-14">
          <mxGeometry width="160" relative="1" as="geometry">
            <mxPoint x="240" y="480" as="sourcePoint" />
            <mxPoint x="240" y="422" as="targetPoint" />
          </mxGeometry>
        </mxCell>
        <mxCell id="L2gmkhJbMCFJ-E8kOfrQ-32" value="ihd::ipsolon_device" style="swimlane;fontStyle=1;align=center;verticalAlign=top;childLayout=stackLayout;horizontal=1;startSize=26;horizontalStack=0;resizeParent=1;resizeParentMax=0;resizeLast=0;collapsible=1;marginBottom=0;whiteSpace=wrap;html=1;strokeColor=#FF0000;" vertex="1" parent="WIyWlLk6GJQsqaUBKTNV-1">
          <mxGeometry x="560" y="520" width="380" height="60" as="geometry">
            <mxRectangle x="290" y="220" width="70" height="30" as="alternateBounds" />
          </mxGeometry>
        </mxCell>
        <mxCell id="L2gmkhJbMCFJ-E8kOfrQ-33" value="" style="line;strokeWidth=1;fillColor=none;align=left;verticalAlign=middle;spacingTop=-1;spacingLeft=3;spacingRight=3;rotatable=0;labelPosition=right;points=[];portConstraint=eastwest;strokeColor=inherit;" vertex="1" parent="L2gmkhJbMCFJ-E8kOfrQ-32">
          <mxGeometry y="26" width="380" height="8" as="geometry" />
        </mxCell>
        <mxCell id="L2gmkhJbMCFJ-E8kOfrQ-41" value="+ make(const uhd::device_addr_t&amp;amp; dev_addr): *ihd_ipsolon_device" style="text;strokeColor=none;fillColor=none;align=left;verticalAlign=top;spacingLeft=4;spacingRight=4;overflow=hidden;rotatable=0;points=[[0,0.5],[1,0.5]];portConstraint=eastwest;whiteSpace=wrap;html=1;fontStyle=4" vertex="1" parent="L2gmkhJbMCFJ-E8kOfrQ-32">
          <mxGeometry y="34" width="380" height="26" as="geometry" />
        </mxCell>
        <mxCell id="L2gmkhJbMCFJ-E8kOfrQ-37" value="&amp;lt;&amp;lt; uhd::device &amp;gt;&amp;gt;" style="swimlane;fontStyle=3;align=center;verticalAlign=top;childLayout=stackLayout;horizontal=1;startSize=26;horizontalStack=0;resizeParent=1;resizeParentMax=0;resizeLast=0;collapsible=1;marginBottom=0;whiteSpace=wrap;html=1;" vertex="1" parent="WIyWlLk6GJQsqaUBKTNV-1">
          <mxGeometry x="560" y="392" width="380" height="86" as="geometry">
            <mxRectangle x="290" y="220" width="70" height="30" as="alternateBounds" />
          </mxGeometry>
        </mxCell>
        <mxCell id="L2gmkhJbMCFJ-E8kOfrQ-38" value="" style="line;strokeWidth=1;fillColor=none;align=left;verticalAlign=middle;spacingTop=-1;spacingLeft=3;spacingRight=3;rotatable=0;labelPosition=right;points=[];portConstraint=eastwest;strokeColor=inherit;" vertex="1" parent="L2gmkhJbMCFJ-E8kOfrQ-37">
          <mxGeometry y="26" width="380" height="8" as="geometry" />
        </mxCell>
        <mxCell id="L2gmkhJbMCFJ-E8kOfrQ-39" value="+&amp;nbsp; get_rx_stream(const uhd::stream_args_t&amp;amp; args) : uhd::rx_streamer" style="text;strokeColor=none;fillColor=none;align=left;verticalAlign=top;spacingLeft=4;spacingRight=4;overflow=hidden;rotatable=0;points=[[0,0.5],[1,0.5]];portConstraint=eastwest;whiteSpace=wrap;html=1;fontStyle=2" vertex="1" parent="L2gmkhJbMCFJ-E8kOfrQ-37">
          <mxGeometry y="34" width="380" height="26" as="geometry" />
        </mxCell>
        <mxCell id="L2gmkhJbMCFJ-E8kOfrQ-40" value="+&amp;nbsp; get_tx_stream(const uhd::stream_args_t&amp;amp; args) : uhd::tx_streamer" style="text;strokeColor=none;fillColor=none;align=left;verticalAlign=top;spacingLeft=4;spacingRight=4;overflow=hidden;rotatable=0;points=[[0,0.5],[1,0.5]];portConstraint=eastwest;whiteSpace=wrap;html=1;fontStyle=2" vertex="1" parent="L2gmkhJbMCFJ-E8kOfrQ-37">
          <mxGeometry y="60" width="380" height="26" as="geometry" />
        </mxCell>
        <mxCell id="L2gmkhJbMCFJ-E8kOfrQ-42" value="ihd::chameleon_device" style="swimlane;fontStyle=1;align=center;verticalAlign=top;childLayout=stackLayout;horizontal=1;startSize=26;horizontalStack=0;resizeParent=1;resizeParentMax=0;resizeLast=0;collapsible=1;marginBottom=0;whiteSpace=wrap;html=1;" vertex="1" parent="WIyWlLk6GJQsqaUBKTNV-1">
          <mxGeometry x="560" y="640" width="380" height="112" as="geometry">
            <mxRectangle x="290" y="220" width="70" height="30" as="alternateBounds" />
          </mxGeometry>
        </mxCell>
        <mxCell id="L2gmkhJbMCFJ-E8kOfrQ-88" value="+ commander: chameleon_fw_commander&amp;nbsp;" style="text;strokeColor=none;fillColor=none;align=left;verticalAlign=top;spacingLeft=4;spacingRight=4;overflow=hidden;rotatable=0;points=[[0,0.5],[1,0.5]];portConstraint=eastwest;whiteSpace=wrap;html=1;fontStyle=0" vertex="1" parent="L2gmkhJbMCFJ-E8kOfrQ-42">
          <mxGeometry y="26" width="380" height="26" as="geometry" />
        </mxCell>
        <mxCell id="L2gmkhJbMCFJ-E8kOfrQ-43" value="" style="line;strokeWidth=1;fillColor=none;align=left;verticalAlign=middle;spacingTop=-1;spacingLeft=3;spacingRight=3;rotatable=0;labelPosition=right;points=[];portConstraint=eastwest;strokeColor=inherit;" vertex="1" parent="L2gmkhJbMCFJ-E8kOfrQ-42">
          <mxGeometry y="52" width="380" height="8" as="geometry" />
        </mxCell>
        <mxCell id="L2gmkhJbMCFJ-E8kOfrQ-44" value="+&amp;nbsp; get_rx_stream(const uhd::stream_args_t&amp;amp; args) : uhd::rx_streamer" style="text;strokeColor=none;fillColor=none;align=left;verticalAlign=top;spacingLeft=4;spacingRight=4;overflow=hidden;rotatable=0;points=[[0,0.5],[1,0.5]];portConstraint=eastwest;whiteSpace=wrap;html=1;fontStyle=4" vertex="1" parent="L2gmkhJbMCFJ-E8kOfrQ-42">
          <mxGeometry y="60" width="380" height="26" as="geometry" />
        </mxCell>
        <mxCell id="L2gmkhJbMCFJ-E8kOfrQ-45" value="+&amp;nbsp; get_tx_stream(const uhd::stream_args_t&amp;amp; args) : uhd::tx_streamer" style="text;strokeColor=none;fillColor=none;align=left;verticalAlign=top;spacingLeft=4;spacingRight=4;overflow=hidden;rotatable=0;points=[[0,0.5],[1,0.5]];portConstraint=eastwest;whiteSpace=wrap;html=1;fontStyle=4" vertex="1" parent="L2gmkhJbMCFJ-E8kOfrQ-42">
          <mxGeometry y="86" width="380" height="26" as="geometry" />
        </mxCell>
        <mxCell id="L2gmkhJbMCFJ-E8kOfrQ-47" style="edgeStyle=orthogonalEdgeStyle;rounded=0;orthogonalLoop=1;jettySize=auto;html=1;entryX=0.499;entryY=0.974;entryDx=0;entryDy=0;entryPerimeter=0;strokeColor=default;align=center;verticalAlign=middle;fontFamily=Helvetica;fontSize=11;fontColor=default;labelBackgroundColor=default;endArrow=block;endFill=0;endSize=16;" edge="1" parent="WIyWlLk6GJQsqaUBKTNV-1" source="L2gmkhJbMCFJ-E8kOfrQ-32" target="L2gmkhJbMCFJ-E8kOfrQ-40">
          <mxGeometry relative="1" as="geometry" />
        </mxCell>
        <mxCell id="L2gmkhJbMCFJ-E8kOfrQ-48" style="edgeStyle=orthogonalEdgeStyle;rounded=0;orthogonalLoop=1;jettySize=auto;html=1;entryX=0.5;entryY=1;entryDx=0;entryDy=0;entryPerimeter=0;strokeColor=default;align=center;verticalAlign=middle;fontFamily=Helvetica;fontSize=11;fontColor=default;labelBackgroundColor=default;endArrow=block;endFill=0;endSize=16;" edge="1" parent="WIyWlLk6GJQsqaUBKTNV-1" source="L2gmkhJbMCFJ-E8kOfrQ-42" target="L2gmkhJbMCFJ-E8kOfrQ-41">
          <mxGeometry relative="1" as="geometry" />
        </mxCell>
        <mxCell id="L2gmkhJbMCFJ-E8kOfrQ-50" value="&amp;lt;&amp;lt;creates&amp;gt;&amp;gt;" style="html=1;verticalAlign=bottom;labelBackgroundColor=none;endArrow=open;endFill=0;dashed=1;rounded=0;exitX=1;exitY=0.5;exitDx=0;exitDy=0;entryX=0;entryY=0.5;entryDx=0;entryDy=0;" edge="1" parent="WIyWlLk6GJQsqaUBKTNV-1" source="L2gmkhJbMCFJ-E8kOfrQ-25" target="L2gmkhJbMCFJ-E8kOfrQ-41">
          <mxGeometry x="0.726" width="160" relative="1" as="geometry">
            <mxPoint x="240" y="890" as="sourcePoint" />
            <mxPoint x="400" y="890" as="targetPoint" />
            <Array as="points">
              <mxPoint x="480" y="405" />
              <mxPoint x="480" y="567" />
            </Array>
            <mxPoint as="offset" />
          </mxGeometry>
        </mxCell>
        <mxCell id="L2gmkhJbMCFJ-E8kOfrQ-53" value="&amp;lt;&amp;lt; uhd::rx_streamer &amp;gt;&amp;gt;" style="swimlane;fontStyle=3;align=center;verticalAlign=top;childLayout=stackLayout;horizontal=1;startSize=26;horizontalStack=0;resizeParent=1;resizeParentMax=0;resizeLast=0;collapsible=1;marginBottom=0;whiteSpace=wrap;html=1;" vertex="1" parent="WIyWlLk6GJQsqaUBKTNV-1">
          <mxGeometry x="1040" y="174" width="530" height="160" as="geometry">
            <mxRectangle x="290" y="220" width="70" height="30" as="alternateBounds" />
          </mxGeometry>
        </mxCell>
        <mxCell id="L2gmkhJbMCFJ-E8kOfrQ-54" value="" style="line;strokeWidth=1;fillColor=none;align=left;verticalAlign=middle;spacingTop=-1;spacingLeft=3;spacingRight=3;rotatable=0;labelPosition=right;points=[];portConstraint=eastwest;strokeColor=inherit;" vertex="1" parent="L2gmkhJbMCFJ-E8kOfrQ-53">
          <mxGeometry y="26" width="530" height="8" as="geometry" />
        </mxCell>
        <mxCell id="L2gmkhJbMCFJ-E8kOfrQ-55" value="+ get_num_channels() : size_t" style="text;strokeColor=none;fillColor=none;align=left;verticalAlign=top;spacingLeft=4;spacingRight=4;overflow=hidden;rotatable=0;points=[[0,0.5],[1,0.5]];portConstraint=eastwest;whiteSpace=wrap;html=1;fontStyle=2" vertex="1" parent="L2gmkhJbMCFJ-E8kOfrQ-53">
          <mxGeometry y="34" width="530" height="26" as="geometry" />
        </mxCell>
        <mxCell id="L2gmkhJbMCFJ-E8kOfrQ-56" value="+ get_max_num_samps() : size_t" style="text;strokeColor=none;fillColor=none;align=left;verticalAlign=top;spacingLeft=4;spacingRight=4;overflow=hidden;rotatable=0;points=[[0,0.5],[1,0.5]];portConstraint=eastwest;whiteSpace=wrap;html=1;fontStyle=2" vertex="1" parent="L2gmkhJbMCFJ-E8kOfrQ-53">
          <mxGeometry y="60" width="530" height="26" as="geometry" />
        </mxCell>
        <mxCell id="L2gmkhJbMCFJ-E8kOfrQ-57" value="+&amp;nbsp;&lt;span style=&quot;background-color: initial;&quot;&gt;recv(const buffs_type&amp;amp; buffs, const size_t nsamps_per_buff, uhd::rx_metadata_t&amp;amp; metadata,&lt;br&gt;&lt;/span&gt;&lt;span style=&quot;background-color: initial;&quot;&gt;&amp;nbsp; &amp;nbsp; &amp;nbsp; &amp;nbsp; const double timeout, const bool one_packet)&amp;nbsp;&lt;/span&gt;: size_t" style="text;strokeColor=none;fillColor=none;align=left;verticalAlign=top;spacingLeft=4;spacingRight=4;overflow=hidden;rotatable=0;points=[[0,0.5],[1,0.5]];portConstraint=eastwest;whiteSpace=wrap;html=1;fontStyle=2" vertex="1" parent="L2gmkhJbMCFJ-E8kOfrQ-53">
          <mxGeometry y="86" width="530" height="44" as="geometry" />
        </mxCell>
        <mxCell id="L2gmkhJbMCFJ-E8kOfrQ-58" value="+ issue_stream_cmd(const uhd::stream_cmd_t&amp;amp; stream_cmd): void" style="text;strokeColor=none;fillColor=none;align=left;verticalAlign=top;spacingLeft=4;spacingRight=4;overflow=hidden;rotatable=0;points=[[0,0.5],[1,0.5]];portConstraint=eastwest;whiteSpace=wrap;html=1;fontStyle=2" vertex="1" parent="L2gmkhJbMCFJ-E8kOfrQ-53">
          <mxGeometry y="130" width="530" height="30" as="geometry" />
        </mxCell>
        <mxCell id="L2gmkhJbMCFJ-E8kOfrQ-59" value="&lt;span style=&quot;font-style: normal;&quot;&gt;ihd::rx_streamer&lt;/span&gt;" style="swimlane;fontStyle=3;align=center;verticalAlign=top;childLayout=stackLayout;horizontal=1;startSize=26;horizontalStack=0;resizeParent=1;resizeParentMax=0;resizeLast=0;collapsible=1;marginBottom=0;whiteSpace=wrap;html=1;strokeColor=#000000;" vertex="1" parent="WIyWlLk6GJQsqaUBKTNV-1">
          <mxGeometry x="1076" y="392" width="458" height="60" as="geometry">
            <mxRectangle x="290" y="220" width="70" height="30" as="alternateBounds" />
          </mxGeometry>
        </mxCell>
        <mxCell id="L2gmkhJbMCFJ-E8kOfrQ-60" value="" style="line;strokeWidth=1;fillColor=none;align=left;verticalAlign=middle;spacingTop=-1;spacingLeft=3;spacingRight=3;rotatable=0;labelPosition=right;points=[];portConstraint=eastwest;strokeColor=inherit;" vertex="1" parent="L2gmkhJbMCFJ-E8kOfrQ-59">
          <mxGeometry y="26" width="458" height="8" as="geometry" />
        </mxCell>
        <mxCell id="L2gmkhJbMCFJ-E8kOfrQ-61" value="+ make(const uhd::stream_args_t&amp;amp;, const uhd::device_addr_t&amp;amp;): *uhd::rx_streamer" style="text;strokeColor=none;fillColor=none;align=left;verticalAlign=top;spacingLeft=4;spacingRight=4;overflow=hidden;rotatable=0;points=[[0,0.5],[1,0.5]];portConstraint=eastwest;whiteSpace=wrap;html=1;fontStyle=4" vertex="1" parent="L2gmkhJbMCFJ-E8kOfrQ-59">
          <mxGeometry y="34" width="458" height="26" as="geometry" />
        </mxCell>
        <mxCell id="L2gmkhJbMCFJ-E8kOfrQ-62" style="rounded=0;orthogonalLoop=1;jettySize=auto;html=1;strokeColor=default;align=center;verticalAlign=middle;fontFamily=Helvetica;fontSize=11;fontColor=default;labelBackgroundColor=default;endArrow=block;endFill=0;endSize=16;" edge="1" parent="WIyWlLk6GJQsqaUBKTNV-1" source="L2gmkhJbMCFJ-E8kOfrQ-59" target="L2gmkhJbMCFJ-E8kOfrQ-58">
          <mxGeometry relative="1" as="geometry" />
        </mxCell>
        <mxCell id="L2gmkhJbMCFJ-E8kOfrQ-63" value="&amp;lt;&amp;lt;creates&amp;gt;&amp;gt;" style="html=1;verticalAlign=bottom;labelBackgroundColor=none;endArrow=open;endFill=0;dashed=1;rounded=0;entryX=0;entryY=0.5;entryDx=0;entryDy=0;" edge="1" parent="WIyWlLk6GJQsqaUBKTNV-1" target="L2gmkhJbMCFJ-E8kOfrQ-61">
          <mxGeometry x="-0.1177" width="160" relative="1" as="geometry">
            <mxPoint x="940" y="440" as="sourcePoint" />
            <mxPoint x="1067" y="434.5" as="targetPoint" />
            <mxPoint as="offset" />
          </mxGeometry>
        </mxCell>
        <mxCell id="L2gmkhJbMCFJ-E8kOfrQ-64" value="uhd::tx_streamer" style="swimlane;fontStyle=3;align=center;verticalAlign=top;childLayout=stackLayout;horizontal=1;startSize=26;horizontalStack=0;resizeParent=1;resizeParentMax=0;resizeLast=0;collapsible=1;marginBottom=0;whiteSpace=wrap;html=1;strokeColor=#FF0000;" vertex="1" parent="WIyWlLk6GJQsqaUBKTNV-1">
          <mxGeometry x="1054" y="726" width="190" height="34" as="geometry">
            <mxRectangle x="290" y="220" width="70" height="30" as="alternateBounds" />
          </mxGeometry>
        </mxCell>
        <mxCell id="L2gmkhJbMCFJ-E8kOfrQ-65" value="" style="line;strokeWidth=1;fillColor=none;align=left;verticalAlign=middle;spacingTop=-1;spacingLeft=3;spacingRight=3;rotatable=0;labelPosition=right;points=[];portConstraint=eastwest;strokeColor=inherit;" vertex="1" parent="L2gmkhJbMCFJ-E8kOfrQ-64">
          <mxGeometry y="26" width="190" height="8" as="geometry" />
        </mxCell>
        <mxCell id="L2gmkhJbMCFJ-E8kOfrQ-70" value="&lt;span style=&quot;font-style: italic;&quot;&gt;ihd::tx_streamer&lt;/span&gt;" style="swimlane;fontStyle=1;align=center;verticalAlign=top;childLayout=stackLayout;horizontal=1;startSize=26;horizontalStack=0;resizeParent=1;resizeParentMax=0;resizeLast=0;collapsible=1;marginBottom=0;whiteSpace=wrap;html=1;strokeColor=#FF0000;" vertex="1" parent="WIyWlLk6GJQsqaUBKTNV-1">
          <mxGeometry x="1040" y="800" width="218" height="60" as="geometry">
            <mxRectangle x="290" y="220" width="70" height="30" as="alternateBounds" />
          </mxGeometry>
        </mxCell>
        <mxCell id="L2gmkhJbMCFJ-E8kOfrQ-71" value="" style="line;strokeWidth=1;fillColor=none;align=left;verticalAlign=middle;spacingTop=-1;spacingLeft=3;spacingRight=3;rotatable=0;labelPosition=right;points=[];portConstraint=eastwest;strokeColor=inherit;" vertex="1" parent="L2gmkhJbMCFJ-E8kOfrQ-70">
          <mxGeometry y="26" width="218" height="8" as="geometry" />
        </mxCell>
        <mxCell id="L2gmkhJbMCFJ-E8kOfrQ-72" value="TBD" style="text;strokeColor=none;fillColor=none;align=left;verticalAlign=top;spacingLeft=4;spacingRight=4;overflow=hidden;rotatable=0;points=[[0,0.5],[1,0.5]];portConstraint=eastwest;whiteSpace=wrap;html=1;fontStyle=4" vertex="1" parent="L2gmkhJbMCFJ-E8kOfrQ-70">
          <mxGeometry y="34" width="218" height="26" as="geometry" />
        </mxCell>
        <mxCell id="L2gmkhJbMCFJ-E8kOfrQ-73" style="rounded=0;orthogonalLoop=1;jettySize=auto;html=1;strokeColor=default;align=center;verticalAlign=middle;fontFamily=Helvetica;fontSize=11;fontColor=default;labelBackgroundColor=default;endArrow=block;endFill=0;endSize=16;entryX=0.496;entryY=0.821;entryDx=0;entryDy=0;entryPerimeter=0;" edge="1" parent="WIyWlLk6GJQsqaUBKTNV-1" source="L2gmkhJbMCFJ-E8kOfrQ-70" target="L2gmkhJbMCFJ-E8kOfrQ-65">
          <mxGeometry relative="1" as="geometry">
            <mxPoint x="1149" y="641" as="targetPoint" />
          </mxGeometry>
        </mxCell>
        <mxCell id="L2gmkhJbMCFJ-E8kOfrQ-74" value="&amp;lt;&amp;lt;creates&amp;gt;&amp;gt;" style="html=1;verticalAlign=bottom;labelBackgroundColor=none;endArrow=open;endFill=0;dashed=1;rounded=0;exitX=1;exitY=0.5;exitDx=0;exitDy=0;entryX=0;entryY=0.5;entryDx=0;entryDy=0;" edge="1" parent="WIyWlLk6GJQsqaUBKTNV-1" source="L2gmkhJbMCFJ-E8kOfrQ-40" target="L2gmkhJbMCFJ-E8kOfrQ-72">
          <mxGeometry x="-0.834" y="21" width="160" relative="1" as="geometry">
            <mxPoint x="940" y="460" as="sourcePoint" />
            <mxPoint x="1070" y="622" as="targetPoint" />
            <Array as="points">
              <mxPoint x="980" y="465" />
              <mxPoint x="980" y="847" />
            </Array>
            <mxPoint x="-1" y="-5" as="offset" />
          </mxGeometry>
        </mxCell>
        <mxCell id="L2gmkhJbMCFJ-E8kOfrQ-79" value="&lt;span style=&quot;font-style: normal;&quot;&gt;ihd::chameleon_rx_stream&lt;/span&gt;" style="swimlane;fontStyle=3;align=center;verticalAlign=top;childLayout=stackLayout;horizontal=1;startSize=26;horizontalStack=0;resizeParent=1;resizeParentMax=0;resizeLast=0;collapsible=1;marginBottom=0;whiteSpace=wrap;html=1;" vertex="1" parent="WIyWlLk6GJQsqaUBKTNV-1">
          <mxGeometry x="1040" y="505" width="530" height="160" as="geometry">
            <mxRectangle x="290" y="220" width="70" height="30" as="alternateBounds" />
          </mxGeometry>
        </mxCell>
        <mxCell id="L2gmkhJbMCFJ-E8kOfrQ-80" value="" style="line;strokeWidth=1;fillColor=none;align=left;verticalAlign=middle;spacingTop=-1;spacingLeft=3;spacingRight=3;rotatable=0;labelPosition=right;points=[];portConstraint=eastwest;strokeColor=inherit;" vertex="1" parent="L2gmkhJbMCFJ-E8kOfrQ-79">
          <mxGeometry y="26" width="530" height="8" as="geometry" />
        </mxCell>
        <mxCell id="L2gmkhJbMCFJ-E8kOfrQ-81" value="+ get_num_channels() : size_t" style="text;strokeColor=none;fillColor=none;align=left;verticalAlign=top;spacingLeft=4;spacingRight=4;overflow=hidden;rotatable=0;points=[[0,0.5],[1,0.5]];portConstraint=eastwest;whiteSpace=wrap;html=1;fontStyle=0" vertex="1" parent="L2gmkhJbMCFJ-E8kOfrQ-79">
          <mxGeometry y="34" width="530" height="26" as="geometry" />
        </mxCell>
        <mxCell id="L2gmkhJbMCFJ-E8kOfrQ-82" value="+ get_max_num_samps() : size_t" style="text;strokeColor=none;fillColor=none;align=left;verticalAlign=top;spacingLeft=4;spacingRight=4;overflow=hidden;rotatable=0;points=[[0,0.5],[1,0.5]];portConstraint=eastwest;whiteSpace=wrap;html=1;fontStyle=0" vertex="1" parent="L2gmkhJbMCFJ-E8kOfrQ-79">
          <mxGeometry y="60" width="530" height="26" as="geometry" />
        </mxCell>
        <mxCell id="L2gmkhJbMCFJ-E8kOfrQ-83" value="+&amp;nbsp;&lt;span style=&quot;background-color: initial;&quot;&gt;recv(const buffs_type&amp;amp; buffs, const size_t nsamps_per_buff, uhd::rx_metadata_t&amp;amp; metadata,&lt;br&gt;&lt;/span&gt;&lt;span style=&quot;background-color: initial;&quot;&gt;&amp;nbsp; &amp;nbsp; &amp;nbsp; &amp;nbsp; const double timeout, const bool one_packet)&amp;nbsp;&lt;/span&gt;: size_t" style="text;strokeColor=none;fillColor=none;align=left;verticalAlign=top;spacingLeft=4;spacingRight=4;overflow=hidden;rotatable=0;points=[[0,0.5],[1,0.5]];portConstraint=eastwest;whiteSpace=wrap;html=1;fontStyle=0" vertex="1" parent="L2gmkhJbMCFJ-E8kOfrQ-79">
          <mxGeometry y="86" width="530" height="44" as="geometry" />
        </mxCell>
        <mxCell id="L2gmkhJbMCFJ-E8kOfrQ-84" value="+&amp;nbsp; issue_stream_cmd(const uhd::stream_cmd_t&amp;amp; stream_cmd): void" style="text;strokeColor=none;fillColor=none;align=left;verticalAlign=top;spacingLeft=4;spacingRight=4;overflow=hidden;rotatable=0;points=[[0,0.5],[1,0.5]];portConstraint=eastwest;whiteSpace=wrap;html=1;fontStyle=0" vertex="1" parent="L2gmkhJbMCFJ-E8kOfrQ-79">
          <mxGeometry y="130" width="530" height="30" as="geometry" />
        </mxCell>
        <mxCell id="L2gmkhJbMCFJ-E8kOfrQ-85" style="rounded=0;orthogonalLoop=1;jettySize=auto;html=1;strokeColor=default;align=center;verticalAlign=middle;fontFamily=Helvetica;fontSize=11;fontColor=default;labelBackgroundColor=default;endArrow=block;endFill=0;endSize=16;exitX=0.5;exitY=0;exitDx=0;exitDy=0;" edge="1" parent="WIyWlLk6GJQsqaUBKTNV-1" source="L2gmkhJbMCFJ-E8kOfrQ-79" target="L2gmkhJbMCFJ-E8kOfrQ-61">
          <mxGeometry relative="1" as="geometry">
            <mxPoint x="1304.71" y="510" as="sourcePoint" />
            <mxPoint x="1304.71" y="452" as="targetPoint" />
          </mxGeometry>
        </mxCell>
        <mxCell id="L2gmkhJbMCFJ-E8kOfrQ-93" style="edgeStyle=orthogonalEdgeStyle;rounded=0;orthogonalLoop=1;jettySize=auto;html=1;entryX=0;entryY=0.5;entryDx=0;entryDy=0;dashed=1;strokeColor=default;align=center;verticalAlign=middle;fontFamily=Helvetica;fontSize=11;fontColor=default;labelBackgroundColor=default;endArrow=none;endFill=0;" edge="1" parent="WIyWlLk6GJQsqaUBKTNV-1" source="L2gmkhJbMCFJ-E8kOfrQ-89" target="L2gmkhJbMCFJ-E8kOfrQ-91">
          <mxGeometry relative="1" as="geometry" />
        </mxCell>
        <mxCell id="L2gmkhJbMCFJ-E8kOfrQ-89" value="Communications with Chameleon on separate port (49153, i.e. not the VITA port)" style="shape=note2;boundedLbl=1;whiteSpace=wrap;html=1;size=25;verticalAlign=middle;align=center;" vertex="1" parent="WIyWlLk6GJQsqaUBKTNV-1">
          <mxGeometry x="110" y="629" width="190" height="100" as="geometry" />
        </mxCell>
        <mxCell id="L2gmkhJbMCFJ-E8kOfrQ-92" style="edgeStyle=orthogonalEdgeStyle;rounded=0;orthogonalLoop=1;jettySize=auto;html=1;entryX=0;entryY=0.5;entryDx=0;entryDy=0;endArrow=diamond;endFill=1;" edge="1" parent="WIyWlLk6GJQsqaUBKTNV-1" source="L2gmkhJbMCFJ-E8kOfrQ-91" target="L2gmkhJbMCFJ-E8kOfrQ-88">
          <mxGeometry relative="1" as="geometry" />
        </mxCell>
        <mxCell id="L2gmkhJbMCFJ-E8kOfrQ-91" value="&lt;span style=&quot;text-align: left;&quot;&gt;chameleon_fw_commander&amp;nbsp;&lt;/span&gt;" style="html=1;whiteSpace=wrap;" vertex="1" parent="WIyWlLk6GJQsqaUBKTNV-1">
          <mxGeometry x="340" y="654" width="170" height="50" as="geometry" />
        </mxCell>
      </root>
    </mxGraphModel>
  </diagram>
</mxfile>
